<?xml version="1.0" encoding="UTF-8"?><svg id="Layer_1" xmlns="http://www.w3.org/2000/svg" viewBox="0 0 176 176"><defs><style>.cls-1{fill:#b5b5b5;}.cls-2{fill:#d23b12;}.cls-3{fill:#f2f2f2;}.cls-4{fill:#8c8c8c;}.cls-5{fill:#ff4d21;}.cls-6{fill:#737373;}.cls-7{fill:#fed203;}</style></defs><circle class="cls-3" cx="88" cy="88" r="71.5"/><path class="cls-4" d="M158,138.35c0,.36-.03.71-.1,1.05h-10.96c-.06-.34-.1-.69-.1-1.05,0-3.11,2.5-5.63,5.58-5.63s5.58,2.52,5.58,5.63Z"/><path class="cls-1" d="M56.58,135.73c0,1.29-.12,2.55-.35,3.77H16.85c-.23-1.22-.35-2.48-.35-3.77,0-11.16,8.97-20.21,20.04-20.21s20.04,9.05,20.04,20.21Z"/><polygon class="cls-5" points="149.6 34.43 149.6 53.05 39.88 53.05 39.88 34.27 143.79 34.27 143.96 34.44 143.96 34.43 149.6 34.43"/><polygon class="cls-7" points="83.79 53.05 57.47 53.05 39.88 35.32 39.88 34.27 65.17 34.27 83.79 53.05"/><polygon class="cls-7" points="136.27 53.05 109.94 53.05 91.32 34.27 117.65 34.27 136.27 53.05"/><polygon class="cls-7" points="149.6 34.43 149.6 40.13 143.96 34.44 143.96 34.43 149.6 34.43"/><rect class="cls-5" x="39.88" y="79.79" width="109.72" height="18.78"/><polygon class="cls-7" points="83.79 98.57 57.47 98.57 39.88 80.83 39.88 79.79 65.17 79.79 83.79 98.57"/><polygon class="cls-7" points="136.27 98.57 109.94 98.57 91.32 79.79 117.65 79.79 136.27 98.57"/><polygon class="cls-7" points="149.6 79.79 149.6 85.64 143.96 79.96 143.79 79.79 149.6 79.79"/><ellipse class="cls-2" cx="66.68" cy="21.47" rx="13.26" ry="13.37"/><rect class="cls-6" x="143.96" y="34.43" width="5.64" height="105.06"/><rect class="cls-6" x="39.88" y="34.43" width="5.64" height="105.06"/><ellipse class="cls-5" cx="66.69" cy="21.45" rx="8.88" ry="8.96"/><path class="cls-4" d="M62.25,138.34c0,.4-.04.78-.11,1.16h-12.1c-.07-.37-.11-.76-.11-1.16,0-3.43,2.76-6.21,6.16-6.21s6.16,2.78,6.16,6.21Z"/><path class="cls-4" d="M140.04,137.79c0,.58-.06,1.15-.16,1.71h-17.84c-.1-.55-.16-1.12-.16-1.71,0-5.06,4.07-9.16,9.08-9.16s9.08,4.1,9.08,9.16Z"/><path class="cls-1" d="M125.5,138.45c0,.36-.03.71-.1,1.05h-10.96c-.06-.34-.1-.69-.1-1.05,0-3.11,2.5-5.63,5.58-5.63s5.58,2.52,5.58,5.63Z"/></svg>